<?xml version="1.0" encoding="UTF-8" standalone="no"?>
<!-- Created with Inkscape (http://www.inkscape.org/) -->

<svg
   version="1.1"
   id="svg29517"
   width="225"
   height="225"
   viewBox="0 0 225 225"
   sodipodi:docname="logo_azul_quadrado.svg"
   inkscape:version="1.2.1 (9c6d41e410, 2022-07-14)"
   xmlns:inkscape="http://www.inkscape.org/namespaces/inkscape"
   xmlns:sodipodi="http://sodipodi.sourceforge.net/DTD/sodipodi-0.dtd"
   xmlns="http://www.w3.org/2000/svg"
   xmlns:svg="http://www.w3.org/2000/svg">
  <defs
     id="defs29521" />
  <sodipodi:namedview
     id="namedview29519"
     pagecolor="#ffffff"
     bordercolor="#000000"
     borderopacity="0.25"
     inkscape:showpageshadow="2"
     inkscape:pageopacity="0.0"
     inkscape:pagecheckerboard="0"
     inkscape:deskcolor="#d1d1d1"
     showgrid="false"
     inkscape:zoom="3.6177778"
     inkscape:cx="102.27273"
     inkscape:cy="124.10934"
     inkscape:window-width="1920"
     inkscape:window-height="1017"
     inkscape:window-x="-8"
     inkscape:window-y="-8"
     inkscape:window-maximized="1"
     inkscape:current-layer="g29523" />
  <g
     inkscape:groupmode="layer"
     inkscape:label="Image"
     id="g29523">
    <rect
       style="opacity:1;fill:#dedede;fill-opacity:0.99607801;stroke:#091a39;stroke-opacity:1"
       id="rect45787"
       width="204.82187"
       height="173.31081"
       x="15.202703"
       y="18.243244" />
    <path
       style="opacity:1;fill:#000874;fill-opacity:0.99607801;stroke:#091a39;stroke-opacity:1"
       d="m 74.078624,34.275184 c 18.546618,-19.591763 37.144296,-12.396038 56.388206,-9.674447 0.83438,10.869666 -0.45563,22.248716 3.04054,31.787469 l 15.2027,-1.934889 -12.16216,8.292384 c 10.30419,18.350958 9.33066,20.243364 9.67445,22.94226 1.6497,9.915758 -0.0199,19.223869 -1.93489,29.852579 2.69306,-39.220272 0.20063,-27.02557 -0.55283,-29.023341 -4.61767,11.95838 -4.96025,24.344271 -2.2113,37.039311 l -4.69902,-13.54422 c -2.19535,3.70145 -2.54479,8.69599 -3.31695,13.82064 l -10.50369,-1.10565 0.27642,3.59336 8.84521,3.59336 -3.86978,3.04055 c 3.95375,12.55404 3.98809,10.76439 4.97543,17.414 -17.77784,-13.8561 -29.15283,-15.10247 -41.185505,-16.03195 v -6.08107 l 3.04054,-0.27641 0.276413,-2.76413 H 97.57371 C 94.628204,115.83782 88.26229,105.8472 82.371007,98.679361 l 0.276413,9.398039 -1.934889,-15.755532 -2.211302,8.568792 c -1.05519,-8.250706 -2.596622,-16.01517 -0.829239,-27.088449 -7.992561,0.64185 -13.923849,-0.0046 -16.031941,-3.04054 1.114092,-2.769319 1.538274,-5.472932 17.690418,-9.674447 z"
       id="path29581"
       sodipodi:nodetypes="ccccccccccccccccccccccccccccc" />
    <text
       xml:space="preserve"
       style="font-size:27.0775px;font-family:Papyrus;-inkscape-font-specification:Papyrus;fill:#2201a3;fill-opacity:0.99607801;stroke:#000000;stroke-width:0.651;stroke-dasharray:none;stroke-dashoffset:0;stroke-opacity:1"
       x="42.707829"
       y="167.83917"
       id="text32057"
       transform="scale(1.0028278,0.99718018)"><tspan
         sodipodi:role="line"
         id="tspan32055"
         x="42.707829"
         y="167.83917"
         style="fill:#2201a3;fill-opacity:0.99607801;stroke:#000000;stroke-width:0.651;stroke-dasharray:none;stroke-dashoffset:0;stroke-opacity:1">𝖐𝖚𝖗𝖔𝖘𝖍𝖎𝖙𝖘𝖚𝖏𝖎</tspan></text>
  </g>
</svg>
