<?xml version="1.0" encoding="UTF-8" standalone="no"?>
<!-- Created with Inkscape (http://www.inkscape.org/) -->

<svg
   version="1.1"
   id="svg9"
   width="981.33331"
   height="981.33331"
   viewBox="0 0 981.33331 981.33331"
   sodipodi:docname="pentagrama__roxo.svg"
   inkscape:version="1.2.1 (9c6d41e410, 2022-07-14)"
   xmlns:inkscape="http://www.inkscape.org/namespaces/inkscape"
   xmlns:sodipodi="http://sodipodi.sourceforge.net/DTD/sodipodi-0.dtd"
   xmlns="http://www.w3.org/2000/svg"
   xmlns:svg="http://www.w3.org/2000/svg">
  <defs
     id="defs13" />
  <sodipodi:namedview
     id="namedview11"
     pagecolor="#ffffff"
     bordercolor="#000000"
     borderopacity="0.25"
     inkscape:showpageshadow="2"
     inkscape:pageopacity="0.0"
     inkscape:pagecheckerboard="0"
     inkscape:deskcolor="#d1d1d1"
     showgrid="false"
     inkscape:zoom="1.0729879"
     inkscape:cx="234.85819"
     inkscape:cy="462.26057"
     inkscape:window-width="1920"
     inkscape:window-height="1017"
     inkscape:window-x="-8"
     inkscape:window-y="-8"
     inkscape:window-maximized="1"
     inkscape:current-layer="g15" />
  <g
     inkscape:groupmode="layer"
     inkscape:label="Image"
     id="g15">
    <path
       style="opacity:0.993266;fill:#1f4e8d;fill-opacity:0.298039;stroke:#120a7b;stroke-width:8.1;stroke-dasharray:none;stroke-opacity:1"
       d="m 184.22826,340.6881 c -30.23709,-1.10643 -40.05939,9.45274 -46.48656,21.95198 l -6.45647,29.69975 c -2.02047,25.26375 12.28253,34.20403 27.11716,42.61268 -30.91964,6.03623 -31.1889,12.26669 -38.7388,25.82586 -6.28538,11.28818 -7.24304,27.2712 -1.29129,38.7388 6.87439,13.24532 24.96501,17.11369 37.44751,24.53458 -17.73881,10.15649 -28.17336,21.48744 -32.28234,37.4475 -2.08371,8.09354 0.13533,17.86016 5.16518,24.53458 11.81991,15.68458 31.83607,21.61661 52.07768,27.55656 -9.29467,11.87197 -22.54408,30.12586 -21.08664,47.33845 0.52376,6.18563 5.44834,11.66114 10.33034,15.49552 15.84842,12.44755 38.37067,18.70108 56.81691,20.66069 -3.03905,12.90979 -17.31101,27.09173 -14.20423,41.32139 2.6626,12.19522 14.17239,22.64399 25.82587,27.11716 15.71822,6.03342 29.52125,6.87296 50.36044,-3.87388 -4.02358,14.20423 -5.43691,30.09563 1.29129,42.61268 4.24063,7.8892 13.07392,14.31136 21.95199,15.49552 18.81943,2.51014 35.86776,0.2198 53.51544,-19.50241 0.68628,13.48983 7.98166,36.67105 21.37957,47.91086 5.43851,4.56249 13.67333,6.41836 20.6607,5.16518 18.42052,-3.30371 37.2799,-14.93682 46.34009,-31.69646 3.38936,8.21416 15.5645,36.67021 32.4288,42.0268 5.57979,1.7723 11.99792,-1.79743 16.78681,-5.16517 13.10339,-9.21483 24.07634,-25.17065 28.8344,-38.44586 16.45647,18.77873 26.18959,26.71755 43.47803,29.40681 7.53662,1.17234 16.31009,-1.32381 21.95198,-6.45647 13.71667,-12.47861 17.5277,-31.93189 20.6607,-51.65173 13.81339,13.6205 23.89684,22.00934 38.7388,21.95198 12.92001,-0.0499 26.75172,-8.39713 33.57362,-19.3694 9.74164,-15.66834 4.19678,-38.372 3.59441,-55.23267 12.93093,7.43534 30.87482,19.22205 46.76603,15.20258 12.1014,-3.06089 22.21004,-15.16983 25.82587,-27.11716 5.06314,-16.72951 -5.28354,-35.02848 -9.03905,-51.65173 18.84081,-0.15719 33.77218,7.57668 46.48656,-1.2913 9.50592,-6.63015 13.25759,-20.69774 12.91293,-32.28233 -0.51398,-17.27604 -9.51837,-34.40521 -22.085,-46.91251 12.34501,-2.12857 36.41669,1.66425 47.91087,-9.9044 9.28153,-9.34167 11.19197,-26.02853 7.74776,-38.7388 -4.06684,-15.00798 -9.27433,-26.49653 -30.99104,-34.86492 15.52061,-4.59577 29.40765,-14.44593 34.86492,-28.40845 4.4319,-11.33909 -0.0856,-25.09208 -5.16518,-36.15621 -7.7931,-16.97476 -34.92806,-45.58517 -42.0268,-29.84621 2.55201,2.97735 25.97381,-23.77967 27.82258,-39.88363 1.58621,-13.8169 -4.41569,-30.33284 -15.49552,-38.7388 -11.33942,-8.6029 -42.45276,-4.59276 -42.45276,-4.59276 0,0 24.13166,-28.1336 21.79206,-44.47639 -1.89977,-13.27041 -15.00644,-23.95143 -27.11716,-29.69974 -14.02026,-6.65467 -24.03058,-12.16242 -46.48656,-2.58259 9.22402,-18.96539 14.61538,-37.38326 0,-52.94303 -22.81285,-14.26774 -45.62569,-26.74321 -68.43854,-3.87388 4.82576,-20.06055 0.33487,-35.46278 -15.49552,-45.19526 0,0 -8.11147,-6.13285 -12.91294,-6.45647 -18.60594,-1.25405 -37.82648,-13.2593 -52.94302,18.07811 -7.8025,-37.1738 -19.0357,-38.76487 -37.44751,-41.32139 -20.11046,-2.79238 -43.7414,2.90773 -51.65173,32.28233 -11.1013,-26.45859 -33.59548,-36.36283 -54.23432,-32.28233 -19.00158,3.75679 -35.40042,22.88628 -34.86492,46.48656 -18.21527,-12.14127 -47.24181,-31.54894 -68.43855,-20.66069 -17.7984,9.14261 -15.81229,38.60277 -19.3694,56.8169 -21.52155,-17.15249 -48.80585,-12.09999 -64.56466,2.58259 -14.25881,13.28502 -10.15008,36.79021 -6.45647,58.1082 -17.77808,-3.13063 -43.64384,-4.27262 -55.52561,10.33035 -13.04245,16.02948 -19.02456,46.50167 1.29129,61.98208 z"
       id="path1192"
       sodipodi:nodetypes="ccccaacaacaacaacaacaacaacaacaacaacaacaacascaacaaccccacacacacacac" />
    <path
       style="opacity:0.993266;fill:#13167d;stroke:#110a7b;stroke-width:8.1;stroke-dasharray:none;stroke-opacity:1;fill-opacity:0.33725491"
       d="m 133.00321,171.74201 c 24.65767,36.15621 51.81385,77.24773 28.84786,105.60658 -23.12215,28.55167 -71.458594,7.88619 -110.039413,-6.31 25.494094,30.5068 81.185103,66.70105 66.987333,106.01906 -12.29735,34.05514 -35.231551,23.15262 -103.30347,33.57363 49.960037,21.65663 86.01724,37.54217 83.654586,74.89501 -2.105454,33.2866 -50.708303,44.31124 -82.363293,56.81691 34.373559,6.97507 85.989697,15.63864 93.558997,50.21397 7.39752,33.79069 -35.537507,59.43641 -62.567957,82.78924 31.661444,-0.75546 84.914047,-16.98946 103.010527,12.48699 18.29206,29.79502 -15.52097,63.99413 -35.86327,98.56424 31.87447,-8.83596 72.61971,-37.44697 96.847,-15.49552 26.5228,24.03132 10.77511,64.85431 -6.45647,107.17734 31.01894,-16.13319 65.93046,-57.48019 94.26441,-38.7388 30.55073,20.20767 -1.43038,73.18895 1.33167,109.87949 20.97737,-15.19997 60.0106,-81.59235 99.38921,-71.14069 33.88003,8.99226 30.80564,62.85029 43.90397,95.55571 11.60524,-34.0139 25.46375,-86.49739 60.69079,-86.51665 33.67556,-0.0184 39.28672,54.76643 58.1082,82.64277 8.55597,-37.62796 7.32599,-95.01418 43.90397,-104.59476 33.23266,-8.70437 54.55547,41.86109 81.35148,63.27337 2.02983,-36.15621 -23.54304,-90.17034 7.74776,-108.46864 29.58536,-17.30099 61.32409,25.32139 92.97312,43.90398 -5.21593,-36.58665 -35.71617,-84.54105 -9.03905,-109.75994 24.94877,-23.58501 67.65155,8.28093 102.01217,14.20423 -14.11979,-33.84678 -59.67137,-70.24314 -41.32138,-102.01217 17.17176,-29.72918 51.09948,-17.92381 102.01217,-14.20423 -27.08671,-23.31817 -75.7967,-46.68703 -68.43855,-81.35148 7.55473,-35.59055 63.61895,-35.01341 98.1383,-47.77785 -36.23965,-9.50349 -83.95628,-29.91165 -87.80795,-60.69079 -10.57736,-31.66766 25.15312,-53.0447 76.18631,-71.02113 -38.71211,2.24728 -75.32765,-4.94004 -107.17735,-33.57363 -3.03973,-28.66404 30.47321,-60.98335 60.69079,-92.97312 -32.99401,9.09046 -65.68893,20.87274 -102.01218,0 -29.56493,-24.57052 16.39777,-74.73875 34.55853,-112.03613 -31.56934,20.02432 -80.6887,45.72472 -109.74648,27.68958 -30.72011,-19.0669 -9.5882,-67.78073 -2.86206,-106.17899 -30.81976,24.178637 -60.78385,68.21566 -93.692,53.64845 C 609.44501,114.09935 620.6875,65.772918 618.5295,28.408453 597.99026,57.676436 589.44928,97.442888 543.63449,104.59476 510.59147,99.796956 495.91988,60.880779 486.81758,11.62164 c -11.63085,43.394943 -18.29924,89.48978 -54.23432,94.26441 -38.77733,5.15227 -59.11061,-52.866004 -83.05525,-82.90879 4.71709,91.08411 11.21602,92.01957 -21.95199,107.17735 -33.76731,15.43166 -66.59854,-33.042978 -97.12648,-54.513802 5.41371,34.695182 38.6147,93.268582 8.43973,119.344482 -27.3413,23.62717 -77.04332,-11.97136 -105.88606,-23.24328 z"
       id="path1190"
       sodipodi:nodetypes="cacacacacacacacacacacacacacacccccccscacccacacac" />
    <ellipse
       style="opacity:0.993266;fill:none;stroke:#170973;stroke-width:7.9584;stroke-dasharray:none;stroke-opacity:1"
       id="path1008"
       cx="491.87225"
       cy="496.09171"
       rx="283.37958"
       ry="283.98236" />
    <path
       style="opacity:0.993266;fill:none;stroke:#110a7b;stroke-width:8.1;stroke-dasharray:none;stroke-opacity:1"
       d="M 331.53152,268.84193 495.48893,782.4144 657.0352,267.63636 220.61916,584.70105 h 542.50613 z"
       id="path1118" />
    <rect
       style="opacity:0.993266;fill:#000000;fill-opacity:1;stroke:#120a7b;stroke-width:8.36701;stroke-dasharray:none;stroke-opacity:1"
       id="rect6553"
       width="132.26411"
       height="7.8001003"
       x="427.69046"
       y="496.83713" />
    <rect
       style="opacity:0.993266;fill:#000000;fill-opacity:1;stroke:#120a7b;stroke-width:8.29524;stroke-dasharray:none;stroke-opacity:1"
       id="rect6558"
       width="37.83543"
       height="0.95720088"
       x="476.05725"
       y="474.90479" />
    <rect
       style="opacity:0.993266;fill:#000000;fill-opacity:1;stroke:#120a7b;stroke-width:8.1;stroke-dasharray:none;stroke-opacity:1"
       id="rect6560"
       width="2.3048892"
       height="89.890678"
       x="493.24631"
       y="460.97784" />
    <rect
       style="opacity:0.993266;fill:#000000;fill-opacity:1;stroke:#120a7b;stroke-width:8.1;stroke-dasharray:none;stroke-opacity:1"
       id="rect6625"
       width="4.6097784"
       height="32.268448"
       x="556.63074"
       y="471.34982" />
    <g
       id="rect6627"
       style="opacity:0.993266">
      <path
         style="color:#000000;fill:#000000;stroke-width:8.1;-inkscape-stroke:none"
         d="m 546.25873,464.43518 h 14.98178 v 3.45733 h -14.98178 z"
         id="path6633" />
      <path
         style="color:#000000;fill:#120a7b;-inkscape-stroke:none"
         d="m 542.20898,460.38477 v 4.05078 7.50781 h 23.08204 c 0,0 1.71805,-8.96006 -1.15245,-11.55859 -5.4192,-4.90575 -21.92959,0 -21.92959,0 z"
         id="path6645"
         sodipodi:nodetypes="ccccac" />
    </g>
    <ellipse
       style="opacity:0.993266;fill:#110a79;fill-opacity:0.99607843;stroke:#120a7b;stroke-width:8.24902;stroke-dasharray:none;stroke-opacity:1"
       id="path6701"
       cx="143.77808"
       cy="749.00629"
       rx="32.900978"
       ry="14.318331"
       transform="matrix(0.88363302,-0.46818019,0.32473339,0.94580559,0,0)"
       inkscape:transform-center-x="-6.9012529"
       inkscape:transform-center-y="-0.69112264" />
    <ellipse
       style="opacity:0.993266;fill:#100970;fill-opacity:0.99607843;stroke:#120a7b;stroke-width:8.24902;stroke-dasharray:none;stroke-opacity:1"
       id="path6701-5"
       cx="172.85141"
       cy="-531.6983"
       rx="32.900978"
       ry="14.318331"
       transform="matrix(-0.11231527,0.99367262,-0.96402303,-0.26581873,0,0)"
       inkscape:transform-center-x="3.3250094"
       inkscape:transform-center-y="6.0868012" />
    <ellipse
       style="opacity:0.993266;fill:#110a79;fill-opacity:0.99607843;stroke:#120a7b;stroke-width:8.24902;stroke-dasharray:none;stroke-opacity:1"
       id="path6701-8"
       cx="544.67023"
       cy="664.95026"
       rx="32.900978"
       ry="14.318331"
       transform="matrix(0.92064787,-0.39039403,0.24212865,0.97024415,0,0)"
       inkscape:transform-center-x="-6.9351389"
       inkscape:transform-center-y="-0.094612997" />
    <ellipse
       style="opacity:0.993266;fill:#11097a;fill-opacity:0.99607843;stroke:#120a7b;stroke-width:8.24902;stroke-dasharray:none;stroke-opacity:1"
       id="path6701-9-6"
       cx="530.04681"
       cy="228.13443"
       rx="32.900978"
       ry="14.318331"
       transform="matrix(0.87963706,0.4756455,-0.60693479,0.79475163,0,0)"
       inkscape:transform-center-x="6.1997379"
       inkscape:transform-center-y="10.021431" />
    <ellipse
       style="opacity:0.993266;fill:#100970;fill-opacity:0.996078;stroke:#120a7b;stroke-width:8.24902;stroke-dasharray:none;stroke-opacity:1"
       id="path6701-5-8"
       cx="836.52899"
       cy="-173.922"
       rx="32.900978"
       ry="14.318331"
       transform="matrix(0.53172355,0.84691798,-0.91944327,0.39322268,0,0)"
       inkscape:transform-center-x="-1.19538"
       inkscape:transform-center-y="6.8319605" />
  </g>
</svg>
