<?xml version="1.0" encoding="UTF-8" standalone="no"?>
<!-- Created with Inkscape (http://www.inkscape.org/) -->

<svg
   version="1.1"
   id="svg177"
   width="900"
   height="426"
   viewBox="0 0 900 426"
   sodipodi:docname="sonic.svg"
   inkscape:version="1.2.1 (9c6d41e410, 2022-07-14)"
   xmlns:inkscape="http://www.inkscape.org/namespaces/inkscape"
   xmlns:sodipodi="http://sodipodi.sourceforge.net/DTD/sodipodi-0.dtd"
   xmlns="http://www.w3.org/2000/svg"
   xmlns:svg="http://www.w3.org/2000/svg">
  <defs
     id="defs181" />
  <sodipodi:namedview
     id="namedview179"
     pagecolor="#ffffff"
     bordercolor="#000000"
     borderopacity="0.25"
     inkscape:showpageshadow="2"
     inkscape:pageopacity="0.0"
     inkscape:pagecheckerboard="0"
     inkscape:deskcolor="#d1d1d1"
     showgrid="false"
     inkscape:zoom="2.9390539"
     inkscape:cx="386.17869"
     inkscape:cy="219.11813"
     inkscape:window-width="1920"
     inkscape:window-height="1017"
     inkscape:window-x="-8"
     inkscape:window-y="-8"
     inkscape:window-maximized="1"
     inkscape:current-layer="g183" />
  <g
     inkscape:groupmode="layer"
     inkscape:label="Image"
     id="g183">
    <path
       style="opacity:1;fill:#ffffff;fill-opacity:1;stroke:#000000;stroke-opacity:1"
       d="m 444.02043,205.16806 c -11.18429,-3.54548 -34.42836,21.97471 -61.92469,64.64666 l 16.67203,9.18663 c 13.40405,9.72881 17.42317,7.33121 23.1367,6.80491 8.289,-2.9488 12.33541,-5.89759 14.29031,-8.84639 7.04609,-33.47455 10.75874,-57.36841 7.82565,-71.79181 z"
       id="path12905"
       sodipodi:nodetypes="cccccc" />
    <path
       style="opacity:1;fill:#2032dd;fill-opacity:1;stroke:#000000;stroke-opacity:1"
       d="m 377.70198,245.31785 c -7.77886,11.11549 -1.53551,16.97265 3.8083,23.16714 10.79957,-5.42904 17.3207,-16.11403 28.35932,-35.74703 22.20618,-25.19862 20.88089,-19.85355 31.46117,-27.97329 3.19088,24.36926 2.63906,25.96663 1.747,37.0134 l -7.6166,37.17974 c 6.9282,0.45661 16.51829,-4.94293 19.67621,3.8083 9.00701,14.71939 -4.19437,24.50359 -8.88603,36.17883 32.41416,9.37257 40.33594,2.0458 55.53768,-0.31736 15.93429,-5.25611 26.40881,-13.24211 37.44826,-20.94564 17.9701,-15.1274 29.36272,-32.79367 39.98713,-47.92108 6.27144,-15.54848 15.24965,-29.21545 16.23104,-47.78682 -16.2396,18.29754 -36.0792,32.31019 -56.53553,40.48758 -29.16459,11.60728 -63.04603,8.35785 -38.71769,6.02981 17.80057,-1.70338 42.01384,-32.96358 45.21716,-39.04236 2.58943,-4.91381 5.75633,-9.8691 7.21865,-12.64431 15.034,-28.53162 12.41166,-30.19142 17.83766,-49.16456 -52.38451,46.11574 -72.05076,37.04127 -98.51835,34.52337 19.30459,-19.5358 44.42701,-36.1657 78.70789,-36.65333 -6.20623,-2.74901 -11.13771,-12.88159 -27.33146,-22.63222 -11.6037,-6.98685 -28.99002,-13.77758 -56.77152,-17.51512 -30.09478,-0.70073 -49.0603,6.76001 -66.64521,15.23319 -19.59553,10.46026 -30.86626,25.08293 -42.20864,39.66977 -14.03789,17.4547 -17.68962,34.9094 -24.75394,52.3641 -2.94704,16.89995 2.9639,20.41572 5.39509,28.87959 l 1.65546,-18.33811 31.03243,34.52338 4.12566,1.90415 7.6166,8.2513 c -10.32135,-9.77757 -8.98275,-16.10223 -5.07774,-22.53242 z"
       id="path241"
       sodipodi:nodetypes="cccccccccccccssscccscccccccccc" />
    <path
       style="opacity:1;fill:#2032dd;fill-opacity:1;stroke:#000000;stroke-opacity:1"
       d="m 339.619,252.02815 c -10.36845,-2.93266 -22.98172,-1.53803 -26.02336,-34.59204 -3.82683,16.03311 -4.42765,34.72293 6.0298,62.51956 6.16146,14.93274 15.00287,25.04157 25.38865,32.37053 -3.62081,-8.69091 -9.48399,-16.10047 -7.61659,-27.92751 1.21251,-1.66815 1.48691,-3.80534 9.20338,-2.22151 -2.75044,-4.24359 -4.23144,-14.06084 -6.98188,-30.14903 z"
       id="path1558"
       sodipodi:nodetypes="ccccccc" />
    <path
       style="opacity:1;fill:#2032dd;fill-opacity:1;stroke:#000000;stroke-opacity:1"
       d="m 357.41395,159.65405 c -13.90015,-6.57816 -30.51949,-18.56401 -43.63828,-14.9845 -4.55749,17.11293 10.22094,42.22314 22.05793,59.41464 z"
       id="path1560"
       sodipodi:nodetypes="cccc" />
    <path
       style="opacity:1;fill:#f6cc81;fill-opacity:1;stroke:#000000;stroke-opacity:1"
       d="m 423.67314,177.08586 33.95733,5.39508 c -0.39161,-17.16888 0.45492,-35.57589 -8.88603,-43.79542 -14.34383,12.37726 -20.19934,28.87368 -25.0713,38.40034 z"
       id="path1564"
       sodipodi:nodetypes="cccc" />
    <path
       style="opacity:1;fill:#f6cc81;stroke:#000000;stroke-opacity:1;fill-opacity:1"
       d="m 349.72869,168.19983 c -8.24623,-6.64379 -14.57964,-15.43951 -29.19695,-14.91584 -2.9904,10.57357 1.93416,25.50037 15.86791,45.38222 z"
       id="path1566"
       sodipodi:nodetypes="cccc" />
    <path
       style="opacity:1;fill:#2032dd;fill-opacity:1;stroke:#000000;stroke-opacity:1"
       d="m 410.66146,180.57679 c 9.15293,-19.72829 20.23369,-48.66216 41.53121,-56.19528 18.85546,5.11195 11.27492,46.82415 14.00647,64.12924 l -8.56867,-5.07773 c 0.28108,-38.5811 -3.80403,-38.66169 -7.23057,-45.06487 -13.09311,8.07628 -20.41819,26.33572 -28.94826,41.25657 z"
       id="path1562"
       sodipodi:nodetypes="ccccccc" />
    <path
       style="opacity:1;fill:#ffcc98;fill-opacity:1;stroke:#000000;stroke-opacity:1"
       d="m 434.80832,279.0131 c -10.0058,4.14132 -17.57583,9.50361 -28.40203,5.44086 -7.60401,-5.61924 -11.32505,-7.63605 -24.75393,-14.91583 -8.88603,3.81002 -17.77206,7.77486 -26.65809,14.91583 l -7.93395,-3.17358 c -18.34821,-4.19939 -10.01811,24.353 -0.63472,33.5286 30.3715,29.69893 37.8159,24.54529 47.24059,27.15853 21.93156,0.47027 39.72599,-9.1226 53.36195,-23.87358 13.21023,-16.76259 15.15528,-27.30865 10.15546,-34.9094 -5.59226,-8.50137 -14.90582,-5.9309 -23.16715,-3.8083 z"
       id="path1568"
       sodipodi:nodetypes="cccccsccscc" />
    <path
       style="opacity:1;fill:#000000;fill-opacity:1;stroke:#000000;stroke-opacity:1"
       d="m 412.75204,317.14754 c 4.86384,-1.79256 10.74588,-4.27381 15.86764,-5.33583 7.5439,-1.56426 9.51257,-2.56376 14.88479,-3.86898"
       id="path10425"
       sodipodi:nodetypes="csc" />
    <ellipse
       style="opacity:1;fill:#13992e;fill-opacity:1;stroke:#000000;stroke-opacity:1"
       id="path10668"
       cx="413.69345"
       cy="259.09448"
       rx="8.6818094"
       ry="20.606222" />
    <ellipse
       style="opacity:1;fill:#000000;fill-opacity:1;stroke:none;stroke-opacity:1"
       id="path10670"
       cx="414.11185"
       cy="260.66348"
       rx="3.2426035"
       ry="9.41401" />
    <path
       style="opacity:1;fill:#ffffff;fill-opacity:1;stroke:#000000;stroke-opacity:1"
       d="m 340.24554,222.52058 c -0.0528,15.54575 -5.02021,21.26217 5.78417,58.52224 13.383,11.62951 19.62083,-6.11514 31.98309,-9.86713 -9.74358,-17.43488 -22.58674,-34.84485 -37.76726,-48.65511 z"
       id="path12849"
       sodipodi:nodetypes="cccc" />
    <ellipse
       style="opacity:1;fill:#13992e;fill-opacity:1;stroke:#000000;stroke-width:0.825036;stroke-opacity:1"
       id="path10666"
       cx="365.50043"
       cy="265.08432"
       rx="5.1082873"
       ry="13.267097" />
    <ellipse
       style="opacity:1;fill:#000000;fill-opacity:1;stroke:none;stroke-width:0.926685;stroke-opacity:1"
       id="path12349"
       cx="365.73724"
       cy="263.87964"
       rx="2.54706"
       ry="6.5218644" />
    <ellipse
       style="opacity:1;fill:#000000;fill-opacity:1;stroke:#000000;stroke-width:1.22449;stroke-opacity:1"
       id="path10044"
       cx="233.032"
       cy="429.40662"
       rx="5.2878046"
       ry="8.7488356"
       transform="matrix(0.84599682,-0.53318795,0.41628168,0.9092357,0,0)" />
  </g>
</svg>
